<?xml version="1.0" standalone="no"?>
<!DOCTYPE svg PUBLIC "-//W3C//DTD SVG 20010904//EN"
 "http://www.w3.org/TR/2001/REC-SVG-20010904/DTD/svg10.dtd">
<svg version="1.0" xmlns="http://www.w3.org/2000/svg"
 width="504.000000pt" height="504.000000pt" viewBox="0 0 504.000000 504.000000"
 preserveAspectRatio="xMidYMid meet">
<metadata>
Created by potrace 1.11, written by Peter Selinger 2001-2013
</metadata>
<g transform="translate(0.000000,504.000000) scale(0.100000,-0.100000)"
fill="#000000" stroke="none">
<path d="M2336 4463 c-3 -4 -21 -7 -38 -9 -96 -8 -238 -36 -238 -46 0 -5 -5
-6 -10 -3 -6 4 -18 1 -27 -7 -9 -7 -14 -8 -10 -2 6 10 -173 -44 -183 -55 -3
-3 -14 -7 -25 -9 -11 -2 -30 -10 -43 -18 -12 -8 -27 -12 -32 -9 -6 3 -10 3
-10 -2 0 -4 -20 -16 -45 -26 -25 -11 -45 -24 -45 -30 0 -6 -3 -7 -6 -4 -12 11
-223 -118 -285 -174 -43 -39 -69 -59 -69 -54 0 3 -38 -32 -85 -78 -47 -46 -85
-81 -85 -79 0 3 -10 -8 -22 -24 -12 -16 -27 -32 -33 -36 -5 -4 -6 -8 -2 -8 4
0 -3 -10 -16 -22 -13 -13 -37 -41 -53 -63 -29 -41 -45 -61 -75 -94 -8 -9 -14
-22 -12 -27 2 -6 -6 -19 -17 -29 -11 -10 -20 -24 -20 -31 0 -7 -3 -14 -7 -16
-5 -1 -21 -30 -38 -63 -16 -33 -34 -63 -40 -67 -5 -4 -7 -8 -2 -8 4 0 1 -10
-8 -23 -8 -13 -12 -27 -9 -30 4 -4 0 -9 -9 -13 -9 -3 -13 -12 -11 -19 3 -7 0
-16 -5 -20 -6 -3 -9 -11 -6 -16 4 -5 1 -9 -4 -9 -6 0 -11 -11 -11 -25 0 -14
-5 -25 -10 -25 -6 0 -10 -6 -9 -12 1 -7 -1 -21 -4 -30 -9 -24 -16 -47 -17 -53
0 -3 -6 -21 -14 -40 -8 -19 -13 -35 -11 -35 3 0 0 -11 -5 -24 -5 -13 -12 -44
-15 -67 -8 -52 -13 -74 -15 -74 -1 0 -3 -16 -5 -35 -2 -20 -6 -51 -10 -70 -16
-79 -6 -504 12 -550 3 -8 7 -24 8 -35 1 -11 7 -43 14 -71 7 -29 14 -58 15 -65
2 -8 5 -21 8 -29 16 -43 42 -136 40 -142 -1 -5 3 -8 9 -8 6 0 9 -7 5 -15 -3
-8 -1 -15 4 -15 6 0 10 -7 10 -15 0 -8 4 -23 9 -33 5 -9 33 -65 61 -125 29
-59 56 -107 62 -107 5 0 7 -4 4 -9 -3 -5 1 -14 9 -21 8 -7 15 -17 15 -22 0 -5
8 -20 18 -33 9 -12 24 -33 32 -45 8 -13 23 -32 33 -42 9 -10 17 -22 17 -26 0
-5 9 -17 20 -27 11 -10 20 -24 20 -32 0 -7 7 -13 15 -13 8 0 15 -4 15 -9 0 -6
20 -30 45 -55 25 -26 45 -51 45 -56 0 -6 4 -10 10 -10 5 0 26 -18 46 -40 21
-22 39 -39 41 -37 1 2 26 -18 54 -44 29 -27 56 -46 60 -43 5 3 9 1 9 -5 0 -15
160 -123 203 -137 9 -4 17 -11 17 -16 0 -5 4 -6 10 -3 5 3 10 2 10 -4 0 -5 14
-12 30 -16 17 -4 30 -10 30 -15 0 -7 35 -23 62 -29 4 -1 27 -12 50 -25 24 -13
49 -21 56 -19 6 3 12 0 12 -6 0 -6 9 -11 20 -11 11 0 20 -5 20 -11 0 -5 4 -8
9 -5 5 3 25 -1 45 -9 20 -8 36 -12 36 -8 0 4 5 2 11 -4 6 -6 18 -9 25 -6 8 3
14 -1 14 -8 0 -7 3 -10 6 -7 3 4 20 2 37 -3 34 -10 94 -21 115 -22 6 0 12 -3
12 -6 0 -6 62 -12 137 -15 18 0 33 -3 33 -6 0 -3 9 -6 20 -7 13 -1 18 2 13 10
-4 7 0 6 10 -2 13 -10 20 -11 31 -2 10 9 16 9 21 1 8 -13 205 -11 205 3 0 6 5
6 13 0 11 -8 33 -10 40 -3 1 1 23 3 48 5 26 1 55 5 65 10 11 4 34 8 52 8 17 0
32 2 32 6 0 3 17 7 37 9 20 1 39 6 43 10 3 4 14 8 25 9 42 3 187 48 238 74 20
11 37 17 37 14 0 -3 12 3 27 12 15 10 27 16 28 14 0 -2 20 7 45 20 25 13 48
23 52 24 4 0 17 8 29 18 11 10 23 16 26 14 2 -3 16 6 30 19 14 13 28 22 32 21
5 -1 88 50 101 63 3 3 23 18 45 35 58 43 55 41 114 92 45 41 128 122 186 184
8 9 15 20 15 25 0 5 9 15 20 22 11 7 20 19 20 28 0 8 4 13 8 10 4 -3 19 13 32
35 14 21 28 39 32 39 5 0 8 4 8 10 0 8 38 70 58 95 18 22 117 219 114 228 -1
4 3 7 10 7 6 0 9 3 6 6 -4 3 0 17 7 31 16 30 3 69 -24 75 -16 4 -102 3 -308
-3 -57 -2 -99 -7 -96 -12 3 -5 -3 -5 -13 1 -11 6 -27 7 -41 1 -14 -5 -23 -5
-23 1 0 6 -9 6 -24 0 -15 -5 -27 -5 -35 3 -6 6 -11 7 -11 1 0 -11 -100 -12
-117 -1 -6 4 -14 3 -17 -2 -3 -5 -19 -8 -36 -7 -16 1 -30 -1 -30 -6 0 -4 -11
-3 -24 2 -13 5 -27 6 -30 2 -4 -3 -57 -7 -119 -7 -62 -1 -118 -5 -125 -9 -7
-4 -12 -2 -12 5 0 7 -4 8 -12 2 -7 -5 -40 -8 -73 -8 -33 1 -68 -2 -77 -7 -10
-5 -19 -4 -23 2 -4 6 -10 8 -14 6 -4 -3 -42 -6 -84 -7 -43 -1 -77 -5 -77 -8 0
-4 -15 -30 -34 -59 -19 -28 -32 -52 -29 -52 3 0 -4 -8 -15 -19 -12 -10 -20
-20 -17 -23 2 -2 -8 -18 -24 -35 -15 -17 -31 -39 -34 -48 -4 -9 -11 -13 -17
-10 -5 3 -10 1 -10 -5 0 -14 -57 -70 -72 -70 -6 0 -8 -3 -5 -6 6 -7 -115 -104
-129 -104 -4 0 -15 -6 -23 -13 -9 -7 -29 -19 -44 -25 -25 -11 -31 -9 -52 13
-14 13 -25 21 -25 18 0 -3 -11 6 -25 21 -14 15 -25 24 -25 20 0 -3 -39 34 -87
83 -93 95 -188 218 -236 306 -16 28 -34 55 -39 58 -5 3 -8 9 -6 12 1 4 -6 17
-17 29 -10 13 -18 25 -17 28 4 13 -11 50 -21 50 -6 0 -7 3 -4 6 3 4 1 16 -6
28 -6 11 -16 35 -23 52 l-11 31 108 -1 c59 -1 110 -4 114 -8 4 -4 17 -3 29 2
13 4 29 5 36 0 7 -5 23 -5 34 -1 12 4 66 6 121 4 55 -2 109 -3 120 -2 11 0 27
0 35 -1 8 0 24 0 35 1 11 0 67 0 125 0 58 0 114 -1 125 0 11 0 26 0 33 0 6 -1
18 -1 25 -2 6 0 33 2 60 4 29 2 47 -1 47 -7 0 -8 3 -7 8 0 4 7 44 11 105 10
53 -1 97 1 97 4 0 3 63 5 141 5 77 0 146 3 152 7 5 3 21 2 33 -2 13 -5 26 -5
29 -1 2 5 33 10 67 11 35 1 84 2 111 3 26 1 47 4 47 7 0 3 28 6 63 7 34 1 80
5 102 8 58 9 144 17 187 19 21 0 38 4 38 7 0 4 24 10 53 15 58 9 70 11 77 14
3 1 13 3 23 6 9 2 25 6 35 8 9 3 18 5 20 6 1 2 7 4 12 5 6 1 13 4 18 5 4 1 10
2 15 1 4 0 7 3 7 9 0 6 4 9 8 8 12 -4 112 44 112 54 0 5 5 6 10 3 6 -3 10 -1
10 5 0 6 5 8 11 4 8 -4 8 -1 1 13 -7 12 -8 41 -3 76 5 36 4 60 -3 67 -6 6 -6
10 0 10 13 0 12 113 -1 122 -6 5 -6 8 1 8 8 0 9 13 5 38 -4 20 -7 52 -6 70 0
17 -2 32 -5 32 -3 0 -6 15 -7 33 -2 36 -7 73 -18 132 -4 22 -8 46 -8 53 0 6
-4 12 -9 12 -5 0 -6 5 -3 10 3 6 3 16 -2 23 -4 6 -8 21 -8 32 0 11 -4 25 -8
32 -4 6 -8 23 -9 37 -1 14 -6 26 -10 26 -4 0 -8 11 -8 23 0 13 -3 27 -7 31 -5
4 -8 11 -9 14 -1 9 -13 38 -37 92 -12 25 -22 47 -22 50 -4 16 -32 67 -42 78
-7 7 -13 18 -13 24 0 5 -9 22 -20 38 -11 15 -17 30 -13 34 3 3 1 6 -5 6 -7 0
-12 7 -12 15 0 8 -4 15 -10 15 -5 0 -10 7 -10 15 0 8 -4 15 -10 15 -5 0 -10 7
-10 15 0 8 -4 15 -10 15 -5 0 -10 6 -10 14 0 8 -3 16 -7 18 -5 2 -28 30 -53
63 -84 113 -202 234 -322 329 -46 37 -89 71 -95 76 -7 6 -16 10 -19 9 -4 0
-10 3 -13 8 -9 13 -89 63 -101 63 -5 0 -10 5 -10 10 0 6 -5 10 -11 10 -6 0
-24 9 -40 21 -16 11 -38 21 -48 22 -11 1 -18 3 -16 6 4 4 -42 25 -132 63 -18
7 -33 15 -33 18 0 3 -11 7 -25 8 -14 1 -38 8 -54 17 -16 8 -43 17 -61 20 -18
3 -41 10 -52 16 -10 6 -29 9 -41 7 -13 -2 -21 2 -20 9 2 7 -6 10 -17 8 -11 -2
-41 2 -65 10 -28 8 -42 9 -38 2 3 -6 1 -7 -5 -3 -14 8 -43 15 -92 22 -57 7
-417 13 -424 7z m808 -267 c27 -3 56 -8 65 -10 9 -3 32 -8 51 -11 19 -3 39
-10 45 -16 5 -5 19 -9 31 -9 13 0 26 -5 29 -10 4 -6 11 -8 16 -5 5 4 9 1 9 -4
0 -6 3 -11 8 -10 15 2 52 -14 52 -23 0 -5 6 -8 13 -6 6 1 44 -18 82 -42 39
-25 74 -43 80 -42 5 2 7 0 3 -3 -4 -4 9 -18 28 -31 42 -29 53 -38 104 -86 22
-21 44 -38 50 -38 5 0 10 -4 10 -9 0 -12 69 -81 81 -81 4 0 6 -7 3 -15 -4 -9
0 -15 10 -15 9 0 16 -3 16 -8 0 -4 11 -19 24 -34 14 -14 22 -29 19 -32 -4 -3
-1 -6 5 -6 6 0 26 -21 43 -47 18 -27 36 -49 41 -51 4 -2 8 -10 8 -18 0 -8 5
-14 10 -14 6 0 10 -7 10 -15 0 -8 5 -15 10 -15 6 0 10 -6 10 -13 0 -7 9 -23
19 -34 11 -12 17 -24 14 -27 -4 -3 -2 -6 4 -6 9 0 17 -18 23 -50 1 -3 8 -9 16
-13 8 -5 12 -12 9 -18 -4 -5 -1 -9 4 -9 6 0 11 -7 11 -15 0 -16 16 -49 37 -75
6 -8 12 -18 13 -22 5 -40 14 -68 23 -68 6 0 7 -3 4 -6 -3 -4 -2 -14 3 -23 7
-14 4 -17 -16 -17 -13 0 -24 4 -24 9 0 5 -9 7 -20 4 -11 -3 -18 -1 -14 4 3 5
2 9 -3 10 -4 0 -16 3 -25 5 -10 3 -31 7 -48 11 -16 3 -30 9 -30 13 0 5 -9 6
-20 3 -12 -3 -20 0 -20 7 0 7 -8 10 -20 7 -11 -3 -22 -2 -25 3 -3 4 -26 11
-52 16 -27 4 -50 8 -53 8 -3 1 -9 4 -15 7 -5 4 -20 5 -32 4 -13 -1 -23 3 -23
8 0 5 -6 7 -14 4 -8 -3 -36 0 -63 7 -26 6 -58 11 -70 10 -13 -1 -23 1 -23 5 0
3 -17 7 -38 8 -20 1 -55 4 -77 7 -70 10 -158 18 -207 20 -26 1 -50 5 -54 9 -4
4 -13 2 -21 -4 -7 -6 -13 -7 -13 -2 0 10 -8 11 -142 13 -44 1 -78 6 -78 11 0
6 -6 7 -12 3 -19 -12 -48 -12 -48 -1 0 5 -5 5 -13 -1 -8 -7 -18 -7 -27 -2 -9
5 -19 5 -27 -2 -7 -6 -13 -7 -13 -2 0 5 -45 9 -100 9 -75 -1 -100 2 -100 12 0
7 -4 13 -10 13 -5 0 -19 10 -32 23 -13 12 -43 35 -68 52 -25 16 -48 34 -52 40
-5 7 -8 7 -8 0 0 -6 -4 -5 -8 1 -10 17 -197 104 -227 106 -14 1 -25 5 -25 8 0
6 -33 11 -80 14 -14 0 -27 4 -31 8 -3 4 -42 9 -87 10 -71 2 -82 5 -82 20 0 10
5 18 12 18 6 0 8 3 5 7 -4 3 3 16 16 28 12 11 23 28 25 36 2 7 12 22 24 32 11
9 17 17 14 17 -3 0 2 8 12 19 9 10 37 41 62 69 25 28 49 51 53 52 5 0 20 14
34 30 13 17 29 30 34 30 6 0 21 10 34 23 39 36 55 48 55 42 0 -4 12 3 26 14
15 11 30 19 34 16 4 -3 11 2 14 11 3 8 10 13 15 10 5 -4 11 -3 13 2 6 14 166
78 218 87 3 1 14 4 25 8 24 7 70 17 105 22 14 2 25 4 25 5 0 1 31 4 68 5 38 2
70 5 73 7 4 5 74 2 148 -6z m-1164 -699 c0 9 126 8 153 -1 40 -14 47 -15 52
-6 4 6 15 5 28 -2 12 -7 27 -13 32 -14 6 -2 20 -5 32 -8 12 -2 30 -9 40 -14
10 -6 21 -11 25 -11 4 -1 25 -9 45 -18 21 -9 41 -16 46 -15 4 1 7 -2 7 -7 0
-5 10 -13 23 -17 23 -7 90 -54 95 -66 2 -5 8 -8 14 -8 9 0 48 -37 48 -45 0 -2
-33 -3 -72 -3 -40 0 -75 0 -78 -1 -3 -1 -88 -2 -190 -3 -116 -1 -188 -6 -192
-12 -5 -7 -8 -6 -8 2 0 7 -5 10 -11 7 -6 -4 -56 -8 -113 -9 -56 -1 -107 -5
-113 -9 -7 -5 -22 2 -34 14 -15 15 -18 24 -10 28 6 4 13 16 15 27 2 11 11 36
19 56 9 20 13 39 9 42 -3 3 0 6 6 6 7 0 12 9 12 20 0 11 5 20 11 20 5 0 8 4 4
9 -9 15 23 40 45 36 11 -2 20 1 20 6 0 6 8 6 20 -1 11 -6 20 -7 20 -3z m655
-1104 c477 -2 695 -7 695 -13 0 -8 54 -5 69 4 9 6 12 5 8 -1 -4 -6 16 -11 51
-12 31 -1 84 -4 117 -7 33 -3 89 -7 125 -10 36 -2 73 -5 83 -5 9 0 15 -5 11
-11 -4 -7 0 -7 13 1 11 6 22 8 25 6 3 -3 24 -7 49 -10 63 -7 120 -14 149 -20
14 -2 44 -7 68 -10 24 -4 53 -10 65 -14 18 -7 16 -9 -18 -16 -52 -11 -70 -14
-130 -21 -27 -3 -54 -9 -60 -13 -5 -3 -36 -6 -67 -6 -32 0 -58 -3 -58 -6 0 -3
-24 -7 -52 -8 -29 -1 -66 -4 -83 -6 -16 -3 -70 -7 -119 -10 -48 -3 -92 -8 -97
-10 -4 -3 -10 -1 -14 5 -4 6 -13 7 -23 1 -9 -5 -28 -8 -42 -7 -14 1 -30 -2
-37 -6 -6 -5 -14 -5 -18 2 -3 6 -11 8 -16 4 -6 -3 -78 -7 -160 -9 -83 -2 -153
-6 -156 -9 -3 -2 -16 -1 -30 5 -13 5 -22 6 -19 1 4 -7 -936 -10 -959 -3 -5 2
-12 2 -15 1 -19 -7 -41 -7 -45 1 -3 4 -16 4 -30 -1 -17 -7 -25 -6 -25 1 0 8
-4 8 -12 1 -14 -11 -43 10 -31 22 4 3 2 6 -4 6 -9 0 -23 51 -28 95 0 6 -3 15
-6 20 -3 6 -5 21 -5 35 1 24 2 25 104 26 56 1 109 5 117 8 8 3 15 0 15 -7 0
-7 3 -8 8 -2 4 6 49 10 99 10 55 0 93 4 93 10 0 7 3 7 8 0 4 -6 148 -11 387
-12z m1406 -630 c0 9 2 9 5 0 4 -8 13 -9 27 -4 21 7 75 6 83 -1 7 -8 -9 -47
-17 -42 -5 3 -6 -2 -3 -10 3 -9 1 -16 -5 -16 -6 0 -11 -7 -11 -15 0 -8 -9 -24
-20 -35 -11 -11 -17 -20 -14 -20 22 0 -139 -179 -208 -232 -16 -13 -35 -28
-41 -33 -22 -20 -142 -90 -149 -87 -5 1 -8 -3 -8 -9 0 -5 -4 -7 -10 -4 -5 3
-10 1 -10 -6 0 -7 -3 -9 -6 -6 -4 4 -19 0 -33 -7 -31 -17 -59 -28 -86 -33 -10
-2 -22 -7 -25 -11 -3 -4 -14 -8 -25 -9 -11 0 -33 -4 -50 -8 -16 -4 -36 -8 -42
-8 -7 0 -13 -3 -13 -7 0 -3 -16 -6 -35 -5 -19 1 -35 -1 -35 -4 0 -3 -26 -6
-58 -6 -31 1 -61 -2 -67 -4 -18 -10 -35 -9 -41 0 -3 5 -13 5 -25 -1 -14 -8
-19 -7 -19 1 0 8 -4 9 -13 0 -8 -6 -16 -9 -18 -6 -3 2 -32 7 -64 9 -63 6 -87
10 -190 31 -13 3 -37 10 -52 17 -16 6 -30 12 -33 13 -62 18 -90 30 -90 38 0 5
-7 7 -15 3 -8 -3 -15 -2 -15 2 0 4 -13 13 -30 20 -36 16 -38 27 -8 43 13 7 28
17 34 23 7 6 25 21 41 33 33 26 133 121 133 128 0 2 10 15 23 28 30 32 57 66
57 73 0 3 7 12 15 21 8 8 13 19 9 24 -3 5 0 8 8 7 7 -2 12 2 11 9 -1 6 4 17
12 23 8 7 15 18 15 26 0 8 10 12 27 10 16 -2 40 0 55 5 16 4 30 3 34 -2 3 -6
11 -6 17 -2 7 4 50 8 97 8 47 0 88 5 92 10 5 6 8 5 8 -2 0 -7 6 -10 13 -7 7 2
57 6 110 8 53 1 100 6 104 9 3 4 13 1 21 -6 12 -9 16 -9 19 0 3 9 10 10 22 3
10 -5 21 -7 24 -4 12 12 78 13 71 2 -5 -7 -2 -8 7 -2 15 9 37 11 221 15 64 2
115 6 112 10 -2 4 9 4 26 -1 21 -6 30 -5 31 3z"/>
</g>
</svg>
