<?xml version="1.0" standalone="no"?>
<!DOCTYPE svg PUBLIC "-//W3C//DTD SVG 20010904//EN"
 "http://www.w3.org/TR/2001/REC-SVG-20010904/DTD/svg10.dtd">
<svg version="1.0" xmlns="http://www.w3.org/2000/svg"
 width="512.000000pt" height="512.000000pt" viewBox="0 0 512.000000 512.000000"
 preserveAspectRatio="xMidYMid meet">
<metadata>
Created by potrace 1.11, written by Peter Selinger 2001-2013
</metadata>
<g transform="translate(0.000000,512.000000) scale(0.100000,-0.100000)"
fill="#000000" stroke="none">
<path d="M2370 4303 c-89 -9 -265 -48 -360 -80 -867 -289 -1369 -1196 -1153
-2083 57 -238 126 -385 298 -641 76 -113 322 -366 340 -349 2 3 12 -5 20 -18
9 -12 21 -20 26 -17 5 4 9 1 9 -5 0 -14 124 -94 231 -147 266 -132 489 -184
789 -184 371 -1 713 110 1017 328 114 82 282 246 365 358 20 28 41 55 45 60
46 55 193 339 193 371 0 10 -13 14 -45 14 l-44 0 -48 -92 c-86 -168 -234 -322
-373 -390 -14 -7 -27 -15 -30 -18 -8 -8 -79 -41 -135 -62 -99 -37 -210 -58
-345 -65 -221 -10 -353 16 -555 112 -49 23 -106 49 -126 58 -45 19 -157 112
-230 191 -156 168 -299 418 -329 576 -5 28 -17 73 -26 98 -8 26 -18 65 -20 86
-3 22 -6 44 -7 49 -3 16 57 18 583 20 464 2 900 -6 1035 -18 28 -3 113 -10
190 -15 170 -13 336 -35 470 -62 165 -34 151 -34 158 -1 19 96 18 205 -2 373
-12 96 -26 189 -31 205 -94 315 -160 454 -314 660 -216 287 -520 502 -866 613
-154 49 -202 60 -315 72 -85 9 -339 11 -415 3z m806 -202 c170 -37 283 -91
444 -209 87 -64 246 -222 292 -290 17 -26 41 -58 53 -72 44 -50 129 -194 176
-300 45 -101 77 -205 67 -216 -3 -2 -31 8 -64 22 -126 56 -459 136 -563 135
-19 0 -42 4 -50 8 -9 5 -95 14 -191 20 -96 6 -227 16 -290 22 -77 6 -281 6
-624 -1 -280 -6 -511 -8 -513 -6 -12 12 78 233 101 248 6 4 57 8 114 8 61 0
102 4 102 10 0 15 -193 13 -208 -2 -9 -9 -12 -9 -12 0 0 7 3 12 8 12 4 0 16
19 27 42 26 55 124 190 184 251 170 178 431 304 664 322 27 2 52 6 55 9 12 13
144 5 228 -13z"/>
<path d="M2260 3471 c-23 -7 -21 -8 15 -14 22 -4 51 -10 64 -14 17 -4 22 -3
17 5 -4 7 -18 12 -32 12 -13 0 -24 5 -24 10 0 11 -4 11 -40 1z"/>
<path d="M2370 3440 c0 -5 5 -10 11 -10 5 0 7 5 4 10 -3 6 -8 10 -11 10 -2 0
-4 -4 -4 -10z"/>
<path d="M2444 3405 c23 -17 50 -20 41 -5 -4 6 -10 8 -15 5 -5 -3 -11 -1 -15
5 -3 5 -12 10 -18 10 -7 0 -3 -7 7 -15z"/>
<path d="M2550 3350 c8 -5 20 -10 25 -10 6 0 3 5 -5 10 -8 5 -19 10 -25 10 -5
0 -3 -5 5 -10z"/>
<path d="M4222 2329 c2 -10 -5 -13 -24 -12 -16 1 -28 -3 -28 -9 0 -6 -12 -8
-30 -4 -19 3 -30 1 -30 -6 0 -7 -14 -9 -40 -5 -30 4 -40 2 -40 -9 0 -11 -9
-13 -40 -8 -26 4 -45 2 -55 -6 -10 -9 -31 -10 -66 -6 -34 5 -49 4 -44 -4 4 -6
-19 -10 -69 -10 -44 0 -78 -5 -82 -11 -4 -7 -35 -10 -90 -6 -49 2 -84 0 -84
-5 0 -6 -63 -8 -154 -6 -85 2 -152 0 -150 -3 8 -13 -166 -17 -696 -17 -304 0
-555 -4 -558 -7 -10 -11 1521 3 1608 14 41 6 138 15 215 21 77 6 167 16 200
21 33 6 83 15 112 19 28 4 66 13 85 19 18 6 46 14 62 19 26 7 27 9 12 22 -15
11 -17 11 -14 -1z"/>
</g>
</svg>
